<svg width="207" height="198" viewBox="0 0 207 198" fill="none" xmlns="http://www.w3.org/2000/svg">
<path d="M178.149 35.7645C179.26 35.5241 180.343 33.6287 182.137 36.998L182.137 36.9978C183.146 36.6012 184.154 36.2045 185.175 35.8361C186.483 35.3453 190.107 35.9339 191.379 36.8251C193.73 38.4895 193.646 38.4589 194.412 42.4327C194.732 44.063 195.481 45.7774 196 47.4562C196.315 48.4886 197.022 50.1876 196.81 50.4446C196.293 51.0317 195.622 51.3843 196.48 52.6853C197.79 54.6272 197.143 51.6027 197.553 52.0614C198.165 52.7543 198.671 53.8498 199.129 54.8421L199.148 54.8818C199.671 56.0255 201.818 53.7769 201.217 57.4333C201.129 57.9377 202.774 59.7033 203.517 60.9866C204.402 62.4762 204.628 64.3466 206.15 65.5312C206.762 66.0037 205.858 68.8227 204.696 68.6512C202.575 68.3221 202.406 71.5275 200.652 71.8085C200.565 71.8125 200.489 72.1783 200.537 72.2911C203.305 77.445 198.62 75.7083 198.945 78.6037C196.594 77.9054 195.716 79.9468 194.786 81.91C192.325 80.492 192.812 83.3513 192.502 85.0506C192.474 85.1956 192.625 85.4648 192.694 85.6687C193.057 86.814 194.322 88.4416 192.909 88.6439C192.526 88.7073 191.707 87.2894 191.065 86.8298C190.778 86.6185 190.217 86.8913 190.095 87.2765C189.573 88.8991 192.397 89.4953 191.685 91.2991C192.017 91.4911 192.538 92.0022 192.665 91.8815C193.702 90.6725 195.978 92.536 196.64 90.3204C196.708 90.1037 197.227 92.5875 197.659 94.1096C197.864 94.0636 198.067 94.0805 198.257 94.198C198.278 95.8946 197.995 95.2924 197.659 94.1096C197.209 94.2104 196.749 94.6133 196.392 94.9256L196.39 94.927C195.411 95.8113 196.026 98.2161 197.488 99.4265C197.934 99.803 198.419 100.23 198.865 100.439C200.627 101.222 200.298 102.462 200.07 103.726L200.061 103.776C200.004 104.092 199.936 104.47 200.002 104.822L200.036 105.005C200.347 106.679 200.355 106.725 199.95 106.544C199.643 106.408 199.318 105.98 199.046 105.929C197.507 105.752 195.845 105.16 194.648 106.204C194.382 106.417 193.854 106.142 193.45 106.115C193.469 105.74 193.514 105.387 193.503 105.025C193.385 103.576 194.615 102.484 193.35 100.857C191.435 98.3731 192.043 102.647 190.616 102.022C190.086 101.782 189.587 102.328 189.112 102.597C187.952 103.225 185.013 103.111 183.707 102.434C183.303 102.24 182.76 102.138 182.518 102.408C181.94 103.021 182.899 105.479 181.463 105.124C179.9 104.724 180.518 106.76 180.429 107.765C180.25 109.941 181.143 108.561 181.641 108.849C182.569 109.353 183.24 110.8 182.644 111.288C181.39 112.322 181.784 113.121 183.225 114.407C183.372 114.544 183.543 115.405 183.425 115.589C182.674 117.009 181.818 118.307 181.067 119.728C180.982 119.864 181.294 120.764 181.523 120.966C183.383 122.774 183.557 123.1 183.217 124.478C183.174 124.63 183.129 124.816 183.035 124.889C182.521 125.275 181.51 125.539 183.192 126.555C183.798 126.931 184.761 127.054 184.976 126.595C185.261 126.007 184.967 124.732 184.923 123.751C184.9 123.361 184.891 122.964 184.868 122.574C185.133 122.861 185.462 123.088 185.663 123.435C185.988 124.03 186.235 124.692 186.496 125.347C187.461 127.736 188.721 128.766 189.96 127.904C191.123 127.075 192.553 127.499 193.996 127.784C194.252 127.841 194.535 128.087 194.813 128.236C194.701 128.517 194.645 128.974 194.449 129.057C193.712 129.338 192.911 130.013 192.136 129.577C190.876 128.88 190.803 129.212 191.455 130.7C192.084 132.133 192.534 133.274 191.318 133.559C191.215 133.57 191.409 134.82 191.674 135.274C191.903 135.643 192.533 135.908 192.832 135.814C194.01 135.479 195.058 134.798 196.281 134.61C196.71 134.528 197.472 135.436 198.099 135.902C197.878 136.263 197.72 136.73 197.424 136.957C196.094 137.857 194.729 138.672 193.387 139.544C193.218 139.65 193.009 140.039 192.97 139.989C190.653 137.276 189.995 139.457 188.84 140.516C188.175 141.133 186.6 140.37 186.14 141.133C185.126 142.899 184.422 145.099 183.884 147.396C183.562 148.733 182.275 149.315 183.173 151.799C183.429 152.523 183.232 153.108 184.04 153.663C184.368 153.89 184.955 154.973 184.903 155.229C184.684 156.222 183.989 156.852 183.969 157.894C183.942 159.672 183.203 158.987 182.326 158.727C181.885 158.615 181.783 160.259 181.254 160.484C179.925 161.051 178.524 161.615 176.997 161.466C175.901 161.366 175.056 161.226 174.74 162.661C174.627 163.109 174.11 163.696 174.017 163.603C171.631 161.02 171.924 164.595 170.906 165.096C169.634 165.671 168.873 167.696 167.521 167.705C166.138 167.728 165.514 168.861 164.445 169.283C163.047 169.813 161.669 170.433 160.295 171.019C159.042 171.553 157.836 172.2 156.523 172.594C155.297 172.983 153.268 171.448 153.016 174.122C151.53 172.689 151.133 175.525 149.638 174.028C148.967 176.348 147.012 176.281 145.64 177.333C143.071 179.262 139.592 178.511 136.678 179.42C135.705 179.734 134.11 178.881 132.868 177.977C131.502 176.992 131.293 179.182 130.076 178.167C128.713 180.581 126.988 181.85 123.904 179.431C123.66 179.235 123.28 180.898 122.824 180.792C121.557 180.498 120.221 179.835 118.918 179.123C117.561 178.368 113.703 177.313 112.625 177.672C111.622 178 110.776 178.527 109.374 177.625C108.439 177.023 107.178 176.827 106.58 177.349C105.588 178.205 105.015 179.749 103.659 180.127C103.375 180.215 102.201 181.982 104.324 183.278C104.202 183.663 104.162 184.28 103.908 184.355C101.897 185.079 100.969 187.508 99.6353 189.277C99.3388 189.67 99.159 190.713 98.9207 190.615C97.9497 190.095 95.5598 190.421 96 192.5L92.5788 193.5C91.892 193.85 92.1856 194.968 91.5 195.309C88.8693 196.616 85.5462 196.879 85.8212 195.932C85.3502 196 84.5417 195.778 84.4595 196.213C84.116 197.626 83.9239 198.808 82.4248 196.38C82.1449 195.933 81.4144 195.977 80.9076 195.793C80.4431 195.625 79.9906 195.484 79.5412 195.309C79.8133 195.026 80.2784 194.861 80.3335 194.404C80.5139 193.027 78.0747 189.734 76.8849 190.041C75.1758 190.469 73.4399 188.909 71.7236 188.274C70.149 187.678 68.6603 188.08 66.982 186.362C66.0359 185.398 65.9263 185.978 65.5596 186.835C65.2838 187.485 64.0653 186.972 63.3616 187.205C61.3684 187.888 59.5704 183.754 57.6175 183.82C56.182 181.331 53.5774 179.408 54.1357 175.903C54.148 175.764 53.2561 174.845 52.7589 174.39C52.2888 173.957 51.7672 173.612 51.2727 173.29C50.4256 172.684 49.4675 171.693 48.7582 171.662C47.7743 171.614 46.9613 172.261 46.1335 172.747C46.0096 172.833 46.0809 173.503 46.207 173.883C47.0538 176.455 46.2796 177.319 45.0052 177.762C44.7968 177.817 44.7809 178.324 44.6536 178.612C45.067 178.702 45.4714 178.73 45.8937 178.883C46.1621 178.969 46.4334 179.186 46.7078 179.37C46.5805 179.657 46.5195 180.016 46.3291 180.198C45.1804 181.187 43.5592 179.645 42.1922 179.494C41.7184 179.43 41.3464 179.855 40.9205 180.07C41.3243 180.431 42.0238 180.9 42.0596 181.151C42.1488 181.946 41.9846 182.65 41.932 183.406C41.5975 183.081 41.2661 182.723 40.9285 182.433C40.5518 182.094 40.127 181.641 39.771 181.56C39.2581 181.445 38.8676 182.078 38.6923 180.453C38.4991 178.702 39.0661 175.426 36.1904 176.719C35.8431 176.867 34.8393 176.061 34.4179 175.408C33.1205 173.327 31.7107 171.695 30.0769 170.458C29.8447 170.29 29.5111 169.465 29.5388 169.154C29.6345 167.913 29.1406 167.257 28.2787 166.491C26.9978 165.37 25.6735 164.901 24.4243 162.933C23.4941 161.463 21.6533 161.247 20.9936 158.695C20.9276 158.457 20.349 157.937 20.213 157.994C19.1799 158.502 17.6605 157.449 17.418 156.252C17.008 154.16 16.1853 151.644 17.2142 150.039C17.65 149.386 17.6883 148.136 17.8108 147.084C17.8293 146.876 17.4288 146.314 17.1788 146.02C17.1125 145.948 16.759 146.166 16.7405 146.374C16.5959 148.002 15.758 147.293 14.7867 146.94C13.2664 146.388 13.5014 143.087 11.9014 143.269C9.98146 143.454 10.1096 140.866 9.33912 139.561C8.94787 138.895 8.85895 137.932 8.65509 137.119C9.12493 137.719 9.57658 138.36 10.0646 138.919C10.17 139.04 10.5658 138.838 10.563 138.706C10.4738 137.911 11.4619 137.256 10.0149 136.206C9.63201 135.936 9.06151 134.179 9.07661 134.173C10.847 133.218 11.1443 132.325 8.3252 130.526C7.2247 129.828 7.2885 127.801 8.37924 127.136C9.45488 126.478 9.42467 126.49 8.46515 124.533C8.11921 123.847 7.83089 123.003 7.70532 122.29C7.29565 120.031 7.40783 117.949 6.25898 115.506C5.85599 114.644 5.95028 112.437 6.32169 112.345C7.88563 112.079 7.64459 110.048 8.06357 108.602C8.26998 107.914 9.45049 107.711 8.4806 106.524C7.577 105.41 6.54897 102.914 5.47641 103.538C3.5458 104.661 3.00384 102.092 2.46942 100.42C2.0161 98.9793 2.36126 96.5654 1.94539 96.1759C0.363307 94.6835 1.9832 93.4596 0.835161 92.3155C1.19875 91.4938 1.35204 90.095 1.96201 89.935C2.89809 89.7026 4.14374 90.2384 5.25991 90.596C5.3866 90.642 5.82511 91.9218 5.74903 92.2876C5.63631 92.9024 5.21008 93.2841 4.91949 93.7747C5.45674 93.779 6.0902 94.009 6.51614 93.7941C7.31071 93.3554 7.99396 92.6974 8.67722 92.0395C9.01283 91.6964 8.71697 89.9557 8.18141 88.9505C7.20959 87.1313 6.89583 85.2649 7.70326 84.354C9.13075 82.6787 11.0219 81.6725 11.1573 78.3478C14.4019 76.6647 15.1311 72.0535 16.1134 67.7011C16.2532 67.1081 16.7759 66.7853 17.2441 66.5857C18.7303 65.8855 20.2495 65.3046 21.7477 64.6326C22.2039 64.4048 22.5879 64.0077 23.011 63.6607C22.6075 63.1326 21.8482 62.3562 21.8577 62.0855C21.9229 61.0243 21.7383 59.5028 22.9664 59.7461C23.6091 59.8721 24.2579 59.9289 24.9067 59.9857C24.5032 59.4576 24.0725 58.9078 23.7173 58.3258C23.6661 58.2477 23.9056 57.6789 24.1019 57.5952C25.1803 57.0688 26.4453 56.8963 26.3586 54.5997C26.3416 53.9736 26.8526 53.4557 27.2785 53.2408C28.2965 52.7402 29.2458 51.8688 30.7711 53.0188C30.7113 50.9107 32.1594 51.2935 33.0356 50.7533C33.3589 50.5488 33.7938 50.3968 34.201 50.5565C35.0034 50.8479 36.1666 51.9855 36.5595 51.6513C37.8592 50.5973 39.1351 49.32 39.9168 47.5533C40.4834 46.245 40.3086 46.0861 41.4435 47.8692C43.5357 51.1444 45.7278 50.6766 47.8016 50.5593C48.3721 50.5161 48.9846 50.6551 49.5881 50.7311C48.5439 47.1093 49.9943 47.9578 51.6687 48.4108C52.8754 48.7298 53.9726 47.8287 54.9487 47.1459C55.2418 46.9543 54.9272 45.5883 54.8833 44.7736C55.5612 45.4847 56.2755 46.1136 56.9321 46.9004C58.2846 48.5241 58.7693 47.4841 59.3533 46.6351C60.3215 45.2222 60.1524 41.7274 62.9983 43.7145C63.0948 43.7733 63.3765 43.2199 63.3253 43.1417C61.758 40.0095 64.3154 41.3196 64.4563 40.0594C64.5453 39.2214 62.9143 36.3163 65.3829 38.2976C65.4763 38.3911 65.7944 35.9554 66.321 35.0975C66.8446 34.2742 68.0061 34.6125 68.3316 33.0736C68.5355 32.0866 69.8726 32.0833 70.6823 31.6382C71.4769 31.1995 71.5286 30.9441 70.8748 30.2894C70.408 29.6549 69.3914 29.3216 69.3791 29.4602C69.1852 31.643 67.4239 30.8604 66.5261 31.6431C66.3538 31.7832 65.995 31.5695 65.6963 31.4968C65.6851 30.9682 65.5084 30.1768 65.705 29.9263C66.6822 28.5763 67.7769 27.3763 68.8173 26.1327C69.5794 25.2411 68.4901 25.0721 68.2194 24.5208C67.9486 23.9694 67.8961 22.9251 68.093 22.5078C68.59 21.3292 68.8526 23.1174 69.2114 23.3311C69.7209 23.6473 70.3664 23.9055 70.7742 23.7317C72.683 23.018 74.5467 22.1568 76.4466 21.3803C77.0658 21.1164 77.6761 20.7895 78.3403 20.6731C79.0467 20.5719 79.9883 22.4041 80.0194 23.6909C80.0364 24.3171 80.1855 25.4203 80.4145 25.6227C80.9389 26.0992 81.9415 27.572 81.9569 25.5986C81.9516 25.1674 82.4531 24.9203 82.8004 24.7723C84.5039 24.0794 86.0002 22.7749 88.2952 23.9301C89.1021 21.5526 90.4171 20.3253 92.9168 21.7932C92.875 18.0108 95.7634 21.6466 96.9425 20.4772C98.0399 19.4093 99.4546 18.2062 101.514 19.3952C101.638 19.4758 101.861 19.5807 101.879 19.5396C102.475 16.9187 104.166 16.5312 106.08 16.2486C107.994 15.9661 109.692 15.0089 111.348 14.0364C112.451 13.3997 113.271 12.1834 114.289 11.3491C115.226 10.6164 116.208 10.1979 116.958 8.94449C117.9 7.34308 119.932 6.87684 121.725 6.81258C122.745 6.7777 124.339 8.29834 125.535 9.55525C127.897 12.082 130.108 13.3733 132.288 12.7105C132.512 12.6486 132.579 12.22 132.73 11.9888C132.501 11.7864 132.164 11.3301 132.028 11.3881C130.415 12.0423 130.659 10.6049 130.938 9.58568C131.093 8.98625 131.55 8.59166 131.991 8.37031C133.329 7.69982 134.706 7.07932 136.129 6.60631C137.086 6.29822 137.386 5.70371 136.637 3.98935C136.565 3.82009 137.052 3.24582 137.372 3.07597C137.523 3.01159 137.954 3.3946 138.174 3.70093C138.406 4.03546 138.52 4.55365 138.745 4.95749C139.257 5.9062 139.814 6.8356 140.355 7.77145C140.688 7.12941 141.13 6.57446 141.331 5.78891C141.616 4.70044 141.017 3.9225 140.14 3.16294C138.964 2.16389 138.574 0.996871 139.707 0.514024C140.401 0.217878 141.247 0.190953 142.067 0.274411C142.426 0.321347 142.896 0.921128 143.342 1.29769C143.094 1.63679 142.822 1.91948 142.586 2.28679C142.317 2.70163 142.059 3.14468 141.805 3.55308C142.27 3.88855 142.725 4.32797 143.183 4.56593C143.572 4.7668 148.431 3.06203 148.83 2.99215C149.696 2.88949 150.764 3.30105 151.48 2.92917C152.241 2.53797 152.6 1.28515 153.337 0.837537C153.645 0.639479 154.528 1.49654 155.088 2.05769C155.221 2.2012 155.129 3.07384 155.125 3.60889C155.122 3.81034 155.103 4.01822 155.046 4.17613C154.691 5.2275 154.254 6.21356 154.02 7.38023C153.965 7.67029 157.996 8.58552 157.994 7.78616C157.964 4.36551 160.145 6.80268 161.286 6.71629C161.929 6.67555 163.518 7.59828 162.962 9.602C164.778 10.4282 165.75 14.0476 167.642 14.3411L167.65 14.3425C168.432 14.4725 168.773 14.5292 168.545 15.6229C168.192 17.3068 168.188 19.8088 167.266 20.3683C166.194 20.9922 165.906 23.4151 163.862 22.2198C163.129 21.7987 162.183 22.4686 161.66 23.1251C161.118 23.8226 159.46 24.6629 162.079 26.5798C162.312 26.7475 162.667 27.4963 162.645 27.7388C162.344 30.9675 163.236 31.7206 165.082 30.7338C165.157 30.7016 165.56 31.3964 165.792 31.7309C163.981 33.9701 166.988 36.5882 167.531 38.9906C167.561 39.1445 168.499 39.3779 169.015 39.6248C170.357 40.2194 171.215 41.1868 171.052 43.19C170.987 43.9176 171.001 44.7452 171.193 45.5301C171.319 46.0765 171.822 46.6288 172.153 47.1543C173.292 44.9688 177.209 52.0661 177.409 46.7141C178.596 47.9081 179.472 47.5348 180.236 46.9421C180.581 46.6619 180.688 45.9496 180.906 45.4566C180.403 45.0711 179.812 44.356 179.447 44.3784C177.953 44.5154 176.417 44.3034 174.768 42.906C174.403 42.5948 174.079 41.8331 173.88 41.2842C173.799 41.0521 174.171 40.4601 174.211 40.51C176.034 42.2331 175.934 38.7753 177.454 39.6609C177.743 39.8376 178.039 39.6113 178.335 39.5518C178.022 38.9852 177.731 38.176 177.402 37.9494C176.866 37.6114 176.31 37.6482 175.755 37.5182C176.124 37.1275 176.442 36.6587 176.85 36.3181C177.176 36.079 177.59 36.0027 178.149 35.7645Z" fill="#FFE68E"/>
</svg>
